<svg class="hidden">
  <symbol xmlns="http://www.w3.org/2000/svg" viewBox="0 0 22 22" id="theme-toggler">
    <path d="M11 17C9.4087 17 7.88258 16.3679 6.75736 15.2426C5.63214 14.1174 5 12.5913 5 11C5 9.4087 5.63214 7.88258 6.75736 6.75736C7.88258 5.63214 9.4087 5 11 5C12.5913 5 14.1174 5.63214 15.2426 6.75736C16.3679 7.88258 17 9.4087 17 11C17 12.5913 16.3679 14.1174 15.2426 15.2426C14.1174 16.3679 12.5913 17 11 17ZM10 0H12V3H10V0ZM10 19H12V22H10V19ZM2.515 3.929L3.929 2.515L6.05 4.636L4.636 6.05L2.515 3.93V3.929ZM15.95 17.364L17.364 15.95L19.485 18.071L18.071 19.485L15.95 17.364ZM18.071 2.514L19.485 3.929L17.364 6.05L15.95 4.636L18.071 2.515V2.514ZM4.636 15.95L6.05 17.364L3.929 19.485L2.515 18.071L4.636 15.95ZM22 10V12H19V10H22ZM3 10V12H0V10H3Z"></path>
  </symbol>
  
  <symbol xmlns="http://www.w3.org/2000/svg" viewBox="0 0 29 13" id="logo-fro">
    <path d="M1.78906 12H0.0390625V0.726562H7.07812V2.23438H1.78906V5.80469H6.63281V7.28125H1.78906V12ZM10.3516 2.19531V6.25H12.8047C13.4818 6.25 14.0052 6.07292 14.375 5.71875C14.7448 5.36458 14.9297 4.86458 14.9297 4.21875C14.9297 3.58854 14.737 3.09375 14.3516 2.73438C13.9661 2.375 13.4349 2.19531 12.7578 2.19531H10.3516ZM10.3516 7.66406V12H8.60156V0.726562H12.9688C14.125 0.726562 15.0417 1.03906 15.7188 1.66406C16.3958 2.28385 16.7344 3.11979 16.7344 4.17188C16.7344 4.9375 16.5391 5.60938 16.1484 6.1875C15.763 6.76042 15.2292 7.16146 14.5469 7.39062L17.0703 12H15.0547L12.7578 7.66406H10.3516ZM23.3047 0.539062C24.9245 0.539062 26.2083 1.0625 27.1562 2.10938C28.1094 3.15625 28.5859 4.57552 28.5859 6.36719C28.5859 8.15885 28.112 9.57812 27.1641 10.625C26.2161 11.6667 24.9297 12.1875 23.3047 12.1875C21.6797 12.1875 20.3932 11.6667 19.4453 10.625C18.4974 9.57812 18.0234 8.15885 18.0234 6.36719C18.0234 4.57552 18.4974 3.15625 19.4453 2.10938C20.3932 1.0625 21.6797 0.539062 23.3047 0.539062ZM23.3047 2.07812C22.2318 2.07812 21.3802 2.46354 20.75 3.23438C20.125 4.00521 19.8125 5.04948 19.8125 6.36719C19.8125 7.67969 20.125 8.72135 20.75 9.49219C21.3802 10.263 22.2318 10.6484 23.3047 10.6484C24.3724 10.6484 25.2188 10.263 25.8438 9.49219C26.474 8.72135 26.7891 7.67969 26.7891 6.36719C26.7891 5.04948 26.474 4.00521 25.8438 3.23438C25.2188 2.46354 24.3724 2.07812 23.3047 2.07812Z" fill="white"></path>
  </symbol>

  <symbol xmlns="http://www.w3.org/2000/svg" viewBox="0 0 11 11" id="logo-heart">
    <path d="M5.50054 1.4532C6.77291 0.310822 8.73916 0.348739 9.96496 1.5767C11.1902 2.8052 11.2325 4.7617 10.0928 6.03786L5.49946 10.6377L0.907206 6.03786C-0.23246 4.7617 -0.189668 2.80195 1.03504 1.5767C2.26191 0.350364 4.22437 0.309197 5.50054 1.4532Z" fill="#83C1FA"></path>
  </symbol>

  <symbol xmlns="http://www.w3.org/2000/svg" viewBox="0 0 18 18" id="link-icon">
    <path d="M7 3V5H2V16H13V11H15V17C15 17.2652 14.8946 17.5196 14.7071 17.7071C14.5196 17.8946 14.2652 18 14 18H1C0.734784 18 0.48043 17.8946 0.292893 17.7071C0.105357 17.5196 0 17.2652 0 17V4C0 3.73478 0.105357 3.48043 0.292893 3.29289C0.48043 3.10536 0.734784 3 1 3H7ZM18 0V9L14.206 5.207L8.207 11.207L6.793 9.793L12.792 3.793L9 0H18Z"></path>
  </symbol>
</svg>