<svg id="Слой_1" data-name="Слой 1" xmlns="http://www.w3.org/2000/svg" viewBox="0 0 71.67 64.5"><defs><style>.cls-1{fill:#e0e0e0;}</style></defs><path class="cls-1" d="M3.75.75h64.5A3.58,3.58,0,0,1,70.78,1.8a3.54,3.54,0,0,1,1,2.53V61.67a3.54,3.54,0,0,1-1,2.53,3.58,3.58,0,0,1-2.53,1H3.75a3.58,3.58,0,0,1-2.53-1,3.54,3.54,0,0,1-1-2.53V4.33A3.54,3.54,0,0,1,1.22,1.8,3.58,3.58,0,0,1,3.75.75ZM36.22,31.86l-23-19.51L8.6,17.81,36.26,41.3,63.43,17.8l-4.69-5.43L36.22,31.86Z" transform="translate(-0.17 -0.75)"/></svg>